<svg width="296" height="37" viewBox="0 0 296 37" fill="none" xmlns="http://www.w3.org/2000/svg">
<path d="M29.5441 25.3343C26.6373 25.3343 25.2103 23.1701 25.1574 19.9501C25.1046 16.7302 26.8487 14.7771 29.4384 14.7243C30.7248 14.7774 31.9856 15.1011 33.138 15.6745L33.6665 10.7126C31.9819 10.2312 30.2393 9.98256 28.4871 9.97361C25.4745 9.97361 23.0962 11.0821 21.5106 12.8768C19.9251 14.6716 19.1323 17.2053 19.0795 19.9501C19.0795 22.8534 19.8722 25.3871 21.5106 27.2346C23.149 29.0821 25.5274 30.1378 28.6456 30.1378C30.7597 30.1378 32.8209 29.8739 33.9837 29.3988L33.7194 24.2258C32.451 24.7009 31.0768 25.3343 29.5441 25.3343ZM11.3631 14.7243C9.98897 14.1437 8.66768 13.7214 7.71635 13.1935C6.76502 12.6657 6.28935 12.1906 6.28935 11.3988C6.24412 10.9529 6.31813 10.503 6.50382 10.095C6.68952 9.68694 6.98026 9.33541 7.34639 9.07625C8.04513 8.70036 8.82538 8.50101 9.61901 8.4956C11.2574 8.4956 13.0544 9.02346 15.1156 9.81525L15.697 4.53666C13.5932 3.86988 11.4031 3.51421 9.1962 3.48094C6.96641 3.4313 4.7738 4.05697 2.90684 5.27566C1.16274 6.59531 0 8.65396 0 11.5572C0 15.9384 3.01255 17.6804 5.76084 18.7889L9.4076 20.3724C11.416 21.3754 11.0989 23.6979 9.61901 24.3842C8.80594 24.8211 7.89962 25.0565 6.97643 25.0704C5.17947 25.0704 3.32966 24.5425 0.951331 23.2229L0.31711 29.0293C2.56413 29.71 4.89324 30.0829 7.24068 30.1378H7.29354C9.83042 30.1378 12.2616 29.61 14.1114 28.3431C15.9612 27.0762 17.124 24.5953 17.124 22.1144C17.124 17.8915 14.1114 15.8328 11.3631 14.7243ZM127.69 12.6657C125.698 10.9317 123.144 9.97648 120.502 9.97648C117.859 9.97648 115.306 10.9317 113.314 12.6657C112.356 13.6599 111.605 14.8347 111.106 16.1216C110.607 17.4085 110.37 18.7818 110.407 20.1613C110.365 22.7673 111.308 25.2935 113.05 27.2346C114.794 29.0293 117.331 30.1378 120.502 30.1378C121.877 30.1928 123.249 29.9633 124.532 29.4637C125.814 28.9641 126.979 28.2052 127.954 27.2346C129.695 25.2935 130.639 22.7673 130.597 20.1613C130.634 18.7818 130.397 17.4085 129.898 16.1216C129.399 14.8347 128.648 13.6599 127.69 12.6657ZM123.673 23.5924C123.409 24.0084 123.066 24.3685 122.663 24.652C122.26 24.9356 121.805 25.137 121.324 25.2448C120.843 25.3527 120.346 25.3648 119.86 25.2805C119.374 25.1963 118.91 25.0172 118.494 24.7537C118.007 24.4796 117.605 24.078 117.331 23.5924C116.715 22.3477 116.424 20.9677 116.485 19.5806C116.485 17.0469 117.806 14.7243 120.502 14.7243C123.197 14.7243 124.519 16.9941 124.519 19.6334C124.587 21.0042 124.296 22.369 123.673 23.5924ZM73.8867 28.132C74.5338 28.7807 75.311 29.2854 76.1672 29.6129C77.0234 29.9404 77.9393 30.0833 78.8548 30.0323C80.0962 30.0868 81.3315 29.8305 82.4484 29.2865C83.5654 28.7426 84.5284 27.9284 85.2498 26.9179C86.5183 25.0176 87.0468 22.5367 87.0468 20.0029C87.0468 17.4164 86.5183 14.9883 85.2498 13.1408C83.9814 11.2933 81.8673 10.0792 78.9605 10.0792C78.0228 10.0528 77.0896 10.217 76.2174 10.5618C75.3452 10.9066 74.5523 11.4249 73.8867 12.085V10.3959H68.2316V37H72.1954C72.644 37 73.0742 36.822 73.3913 36.5053C73.7085 36.1885 73.8867 35.7588 73.8867 35.3109V28.132ZM80.3346 23.6452C79.7532 24.7009 79.0133 25.3343 77.692 25.3343C77.1118 25.3522 76.5388 25.2023 76.0418 24.9027C75.5449 24.603 75.1452 24.1663 74.8909 23.6452C74.3203 22.5354 74.03 21.3032 74.0452 20.0557C73.9959 18.7981 74.3076 17.5527 74.9437 16.4663C75.2332 15.9743 75.6409 15.5622 76.13 15.2672C76.6191 14.9723 77.1742 14.8038 77.7449 14.7771C78.3068 14.7813 78.8555 14.9481 79.3245 15.2572C79.7935 15.5664 80.1627 16.0047 80.3875 16.5191C80.8949 17.6282 81.1477 18.8365 81.1274 20.0557C81.1355 21.2964 80.8645 22.523 80.3346 23.6452ZM62.5764 29.7155C63.025 29.7155 63.4552 29.5376 63.7723 29.2208C64.0895 28.904 64.2677 28.4744 64.2677 28.0264V10.3959H58.454V29.7155H62.5764ZM60.0924 3.58651C59.1939 3.79765 58.454 4.3783 58.454 5.27566V8.39003H64.2677V2.74194L60.0924 3.58651ZM134.825 1.84457C133.873 2.05572 133.133 2.58358 133.133 3.53372V29.7155H137.309C137.757 29.7155 138.187 29.5376 138.505 29.2208C138.822 28.904 139 28.4744 139 28.0264V1L134.825 1.84457ZM48.7293 19.3167V29.7155H52.8517C53.3003 29.7155 53.7304 29.5376 54.0476 29.2208C54.3648 28.904 54.543 28.4744 54.543 28.0264V17.6276C54.543 15.5161 54.0673 13.6158 52.9574 12.1906C51.8475 10.7654 50.1034 9.92082 47.8308 9.92082C45.8732 9.92234 43.9874 10.6569 42.5456 11.9795V1.15836L38.4232 2.00293C37.4719 2.21408 36.7319 2.79472 36.7319 3.69208V29.7155H42.5456V19.7918C42.5776 18.6803 42.8291 17.586 43.2856 16.5718C43.5228 16.004 43.9287 15.5224 44.4484 15.1921C44.9682 14.8617 45.5769 14.6985 46.1924 14.7243C47.5137 14.7771 47.9894 15.2522 48.3593 16.1496C48.6677 17.1754 48.7929 18.2475 48.7293 19.3167ZM102.11 19.3167V29.7155H106.285C106.725 29.6904 107.141 29.5043 107.453 29.1928C107.765 28.8813 107.951 28.4662 107.976 28.0264V17.6276C107.923 15.5161 107.448 13.6158 106.338 12.1906C105.228 10.7654 103.484 9.92082 101.211 9.92082C99.2687 9.92001 97.3986 10.6558 95.9787 11.9795V1.15836L91.8034 2.00293C90.8521 2.21408 90.1122 2.79472 90.1122 3.69208V29.7155H95.9787V19.7918C95.9843 18.6771 96.237 17.5774 96.7186 16.5718C96.9642 16.021 97.3646 15.5532 97.8712 15.2253C98.3779 14.8973 98.9689 14.7233 99.5726 14.7243C100.894 14.7771 101.37 15.2522 101.74 16.1496C102.048 17.1754 102.173 18.2475 102.11 19.3167Z" fill="#0D0A52"/>
<path d="M155.446 30L150.452 12.5455H154.483L157.372 24.6733H157.517L160.705 12.5455H164.156L167.335 24.6989H167.489L170.378 12.5455H174.409L169.415 30H165.818L162.494 18.5881H162.358L159.043 30H155.446ZM178.643 30.2472C177.808 30.2472 177.063 30.1023 176.41 29.8125C175.756 29.517 175.239 29.0824 174.859 28.5085C174.484 27.929 174.296 27.2074 174.296 26.3438C174.296 25.6165 174.43 25.0057 174.697 24.5114C174.964 24.017 175.327 23.6193 175.788 23.3182C176.248 23.017 176.771 22.7898 177.356 22.6364C177.947 22.483 178.566 22.375 179.214 22.3125C179.975 22.233 180.589 22.1591 181.055 22.0909C181.521 22.017 181.859 21.9091 182.069 21.767C182.279 21.625 182.384 21.4148 182.384 21.1364V21.0852C182.384 20.5455 182.214 20.1278 181.873 19.8324C181.538 19.5369 181.06 19.3892 180.441 19.3892C179.788 19.3892 179.268 19.5341 178.881 19.8239C178.495 20.108 178.239 20.4659 178.114 20.8977L174.756 20.625C174.927 19.8295 175.262 19.142 175.762 18.5625C176.262 17.9773 176.907 17.5284 177.697 17.2159C178.492 16.8977 179.413 16.7386 180.458 16.7386C181.185 16.7386 181.881 16.8239 182.546 16.9943C183.217 17.1648 183.81 17.429 184.327 17.7869C184.85 18.1449 185.262 18.6051 185.563 19.1676C185.864 19.7244 186.015 20.392 186.015 21.1705V30H182.572V28.1847H182.469C182.259 28.5938 181.978 28.9545 181.626 29.267C181.273 29.5739 180.85 29.8153 180.356 29.9915C179.862 30.1619 179.29 30.2472 178.643 30.2472ZM179.683 27.7415C180.217 27.7415 180.688 27.6364 181.097 27.4261C181.506 27.2102 181.827 26.9205 182.06 26.5568C182.293 26.1932 182.41 25.7812 182.41 25.321V23.9318C182.296 24.0057 182.14 24.0739 181.941 24.1364C181.748 24.1932 181.529 24.2472 181.285 24.2983C181.04 24.3437 180.796 24.3864 180.552 24.4261C180.308 24.4602 180.086 24.4915 179.887 24.5199C179.461 24.5824 179.089 24.6818 178.771 24.8182C178.452 24.9545 178.205 25.1392 178.029 25.3722C177.853 25.5994 177.765 25.8835 177.765 26.2244C177.765 26.7188 177.944 27.0966 178.302 27.358C178.665 27.6136 179.126 27.7415 179.683 27.7415ZM195.795 16.9091V19.6364H187.911V16.9091H195.795ZM189.701 13.7727H193.332V25.9773C193.332 26.3125 193.383 26.5739 193.485 26.7614C193.587 26.9432 193.729 27.071 193.911 27.1449C194.099 27.2187 194.315 27.2557 194.559 27.2557C194.729 27.2557 194.9 27.2415 195.07 27.2131C195.241 27.179 195.371 27.1534 195.462 27.1364L196.033 29.8381C195.852 29.8949 195.596 29.9602 195.266 30.0341C194.937 30.1136 194.536 30.1619 194.065 30.179C193.19 30.2131 192.423 30.0966 191.763 29.8295C191.11 29.5625 190.602 29.1477 190.238 28.5852C189.874 28.0227 189.695 27.3125 189.701 26.4545V13.7727ZM203.934 30.2557C202.593 30.2557 201.44 29.9716 200.474 29.4034C199.513 28.8295 198.775 28.0341 198.258 27.017C197.746 26 197.491 24.8295 197.491 23.5057C197.491 22.1648 197.749 20.9886 198.266 19.9773C198.789 18.9602 199.531 18.1676 200.491 17.5994C201.451 17.0256 202.593 16.7386 203.917 16.7386C205.059 16.7386 206.059 16.946 206.917 17.3608C207.775 17.7756 208.454 18.358 208.954 19.108C209.454 19.858 209.729 20.7386 209.781 21.75H206.354C206.258 21.0966 206.002 20.571 205.587 20.1733C205.178 19.7699 204.641 19.5682 203.977 19.5682C203.414 19.5682 202.923 19.7216 202.502 20.0284C202.087 20.3295 201.763 20.7699 201.531 21.3494C201.298 21.929 201.181 22.6307 201.181 23.4545C201.181 24.2898 201.295 25 201.522 25.5852C201.755 26.1705 202.082 26.6165 202.502 26.9233C202.923 27.2301 203.414 27.3835 203.977 27.3835C204.391 27.3835 204.763 27.2983 205.093 27.1278C205.428 26.9574 205.704 26.7102 205.92 26.3864C206.141 26.0568 206.286 25.6619 206.354 25.2017H209.781C209.724 26.2017 209.451 27.0824 208.962 27.8438C208.479 28.5994 207.812 29.1903 206.96 29.6165C206.107 30.0426 205.099 30.2557 203.934 30.2557ZM215.736 22.4318V30H212.105V12.5455H215.634V19.2188H215.787C216.082 18.446 216.56 17.8409 217.219 17.4034C217.878 16.9602 218.705 16.7386 219.699 16.7386C220.608 16.7386 221.401 16.9375 222.077 17.3352C222.759 17.7273 223.287 18.2926 223.662 19.0312C224.043 19.7642 224.23 20.642 224.224 21.6648V30H220.594V22.3125C220.599 21.5057 220.395 20.8778 219.98 20.429C219.571 19.9801 218.997 19.7557 218.259 19.7557C217.764 19.7557 217.327 19.8608 216.946 20.071C216.571 20.2812 216.276 20.5881 216.06 20.9915C215.849 21.3892 215.741 21.8693 215.736 22.4318ZM244.106 30.2557C242.782 30.2557 241.637 29.9744 240.671 29.4119C239.711 28.8437 238.969 28.054 238.447 27.0426C237.924 26.0256 237.663 24.8466 237.663 23.5057C237.663 22.1534 237.924 20.9716 238.447 19.9602C238.969 18.9432 239.711 18.1534 240.671 17.5909C241.637 17.0227 242.782 16.7386 244.106 16.7386C245.43 16.7386 246.572 17.0227 247.532 17.5909C248.498 18.1534 249.242 18.9432 249.765 19.9602C250.288 20.9716 250.549 22.1534 250.549 23.5057C250.549 24.8466 250.288 26.0256 249.765 27.0426C249.242 28.054 248.498 28.8437 247.532 29.4119C246.572 29.9744 245.43 30.2557 244.106 30.2557ZM244.123 27.4432C244.725 27.4432 245.228 27.2727 245.631 26.9318C246.035 26.5852 246.339 26.1136 246.543 25.517C246.754 24.9205 246.859 24.2415 246.859 23.4801C246.859 22.7188 246.754 22.0398 246.543 21.4432C246.339 20.8466 246.035 20.375 245.631 20.0284C245.228 19.6818 244.725 19.5085 244.123 19.5085C243.515 19.5085 243.004 19.6818 242.589 20.0284C242.18 20.375 241.87 20.8466 241.66 21.4432C241.455 22.0398 241.353 22.7188 241.353 23.4801C241.353 24.2415 241.455 24.9205 241.66 25.517C241.87 26.1136 242.18 26.5852 242.589 26.9318C243.004 27.2727 243.515 27.4432 244.123 27.4432ZM255.164 30L251.602 16.9091H255.275L257.303 25.7045H257.423L259.536 16.9091H263.141L265.289 25.6534H265.4L267.394 16.9091H271.059L267.505 30H263.661L261.411 21.767H261.249L258.999 30H255.164ZM278.634 30.2557C277.287 30.2557 276.128 29.983 275.156 29.4375C274.19 28.8864 273.446 28.108 272.923 27.1023C272.401 26.0909 272.139 24.8949 272.139 23.5142C272.139 22.1676 272.401 20.9858 272.923 19.9688C273.446 18.9517 274.182 18.1591 275.131 17.5909C276.085 17.0227 277.205 16.7386 278.489 16.7386C279.352 16.7386 280.156 16.8778 280.901 17.1562C281.651 17.429 282.304 17.8409 282.861 18.392C283.423 18.9432 283.861 19.6364 284.173 20.4716C284.486 21.3011 284.642 22.2727 284.642 23.3864V24.3835H273.588V22.1335H281.224C281.224 21.6108 281.111 21.1477 280.884 20.7443C280.656 20.3409 280.341 20.0256 279.938 19.7983C279.54 19.5653 279.077 19.4489 278.548 19.4489C277.997 19.4489 277.509 19.5767 277.082 19.8324C276.662 20.0824 276.332 20.4205 276.094 20.8466C275.855 21.267 275.733 21.7358 275.727 22.2528V24.392C275.727 25.0398 275.847 25.5994 276.085 26.071C276.33 26.5426 276.673 26.9062 277.116 27.1619C277.56 27.4176 278.085 27.5455 278.693 27.5455C279.097 27.5455 279.466 27.4886 279.801 27.375C280.136 27.2614 280.423 27.0909 280.662 26.8636C280.901 26.6364 281.082 26.358 281.207 26.0284L284.565 26.25C284.395 27.0568 284.045 27.7614 283.517 28.3636C282.994 28.9602 282.318 29.4261 281.489 29.7614C280.665 30.0909 279.713 30.2557 278.634 30.2557ZM287.011 30V16.9091H290.531V19.1932H290.668C290.906 18.3807 291.307 17.767 291.869 17.3523C292.432 16.9318 293.08 16.7216 293.812 16.7216C293.994 16.7216 294.19 16.733 294.401 16.7557C294.611 16.7784 294.795 16.8097 294.955 16.8494V20.071C294.784 20.0199 294.548 19.9744 294.247 19.9347C293.946 19.8949 293.67 19.875 293.42 19.875C292.886 19.875 292.409 19.9915 291.989 20.2244C291.574 20.4517 291.244 20.7699 291 21.179C290.761 21.5881 290.642 22.0597 290.642 22.5938V30H287.011Z" fill="url(#paint0_linear_16_26)"/>
<path d="M231.06 0.644524C231.926 0.644524 232.624 1.3423 232.617 2.20168L232.617 7.91613L240.924 13.1091L240.931 15.1877L232.624 12.5802L232.624 18.3094L234.703 19.8592L234.696 21.4237L231.067 20.3807L227.424 21.4237L227.409 19.8519L229.517 18.2874V12.6023L221.188 15.1877L221.195 13.1091L229.503 7.91613L229.503 2.20168C229.488 1.36434 230.222 0.629833 231.06 0.644524Z" fill="url(#paint1_linear_16_26)"/>
<path d="M230 29V20.5H232V29H230Z" fill="url(#paint2_linear_16_26)" stroke="url(#paint3_linear_16_26)"/>
<mask id="path-5-inside-1_16_26" fill="white">
<path d="M232.5 30H229.5V29.5H232.5V30Z"/>
</mask>
<path d="M229.5 30H228.5V31H229.5V30ZM232.5 30V31H233.5V30H232.5ZM232.5 29.5H233.5V28.5H232.5V29.5ZM229.5 29.5V28.5H228.5V29.5H229.5ZM229.5 31H232.5V29H229.5V31ZM233.5 30V29.5H231.5V30H233.5ZM232.5 28.5H229.5V30.5H232.5V28.5ZM228.5 29.5V30H230.5V29.5H228.5Z" fill="url(#paint4_linear_16_26)" mask="url(#path-5-inside-1_16_26)"/>
<defs>
<linearGradient id="paint0_linear_16_26" x1="145.768" y1="9.9659" x2="297.049" y2="39.6396" gradientUnits="userSpaceOnUse">
<stop stop-color="#BD4AE6"/>
<stop offset="0.432292" stop-color="#8142D2"/>
</linearGradient>
<linearGradient id="paint1_linear_16_26" x1="219.451" y1="14.1769" x2="233.44" y2="1.23676" gradientUnits="userSpaceOnUse">
<stop stop-color="#BD4AE6"/>
<stop offset="0.432292" stop-color="#8142D2"/>
</linearGradient>
<linearGradient id="paint2_linear_16_26" x1="229.413" y1="20.9716" x2="232.641" y2="21.0113" gradientUnits="userSpaceOnUse">
<stop stop-color="#BD4AE6"/>
<stop offset="0.432292" stop-color="#8142D2"/>
</linearGradient>
<linearGradient id="paint3_linear_16_26" x1="229.413" y1="20.9716" x2="232.641" y2="21.0113" gradientUnits="userSpaceOnUse">
<stop stop-color="#BD4AE6"/>
<stop offset="0.432292" stop-color="#8142D2"/>
</linearGradient>
<linearGradient id="paint4_linear_16_26" x1="229.413" y1="29.5511" x2="232.474" y2="30.2667" gradientUnits="userSpaceOnUse">
<stop stop-color="#BD4AE6"/>
<stop offset="0.432292" stop-color="#8142D2"/>
</linearGradient>
</defs>
</svg>
